<svg xmlns="http://www.w3.org/2000/svg" viewBox="0 0 1440 900" fill="none" aria-hidden="true">
  <path
    d="M-40 620 C120 480 280 720 460 560 S780 340 960 520 1180 760 1340 600 1520 420 1500 280"
    stroke="#B5A898"
    stroke-width="1.1"
    stroke-linecap="round"
    fill="none"
  />
  <path
    d="M80 180 C220 320 380 120 560 280 S820 480 1000 300 1220 140 1380 320"
    stroke="#B5A898"
    stroke-width="1"
    stroke-linecap="round"
    fill="none"
  />
  <path
    d="M200 820 C340 680 500 860 660 700 S920 520 1080 680 1240 840 1400 680"
    stroke="#B5A898"
    stroke-width="0.9"
    stroke-linecap="round"
    fill="none"
  />
  <path
    d="M-20 400 C140 280 300 460 480 320 S740 180 920 340 1140 500 1300 360 1480 220"
    stroke="#B5A898"
    stroke-width="1"
    stroke-linecap="round"
    fill="none"
  />
  <path
    d="M360 40 C480 180 620 60 760 200 S980 360 1120 220 1280 80 1420 200"
    stroke="#B5A898"
    stroke-width="0.85"
    stroke-linecap="round"
    fill="none"
  />
  <path
    d="M520 880 C640 740 780 860 900 720 S1080 580 1200 720 1320 860 1440 700"
    stroke="#B5A898"
    stroke-width="0.9"
    stroke-linecap="round"
    fill="none"
  />
  <path
    d="M100 520 C200 420 320 580 440 460 S620 300 760 440 920 600 1060 480 1200 360 1340 500"
    stroke="#B5A898"
    stroke-width="0.75"
    stroke-linecap="round"
    fill="none"
  />
  <path
    d="M680 120 C780 240 880 100 980 220 S1120 380 1220 260 1320 140 1420 260"
    stroke="#B5A898"
    stroke-width="0.8"
    stroke-linecap="round"
    fill="none"
  />
</svg>
